<svg width="158" height="140" viewBox="0 0 158 140" fill="none" xmlns="http://www.w3.org/2000/svg">
<rect width="158" height="140" rx="40" fill="#FE5D5C"/>
<path d="M45.4119 97.3639C43.5662 99.2096 43.4783 102.506 45.4559 104.439C47.3895 106.373 50.6853 106.329 52.5311 104.483L79.4256 77.5446L106.364 104.483C108.254 106.373 111.506 106.373 113.439 104.439C115.329 102.462 115.373 99.2536 113.439 97.3639L86.5447 70.4255L113.439 43.5309C115.373 41.6413 115.373 38.3893 113.439 36.4557C111.462 34.5661 108.254 34.5221 106.364 36.4118L79.4256 63.3503L52.5311 36.4118C50.6853 34.5661 47.3455 34.4782 45.4559 36.4557C43.5223 38.3893 43.5662 41.6852 45.4119 43.5309L72.3504 70.4255L45.4119 97.3639Z" fill="white"/>
</svg>
