<svg width="232" height="178" viewBox="0 0 232 178" fill="none" xmlns="http://www.w3.org/2000/svg">
<g id="Group 26">
<rect id="Rectangle 25" x="14.6762" y="111.913" width="207.37" height="65.3668" rx="32.6834" transform="rotate(-12.5352 14.6762 111.913)" fill="#FFD600"/>
<path id="Ellipse 9" d="M181.899 74.7326C179.971 66.0641 176.355 57.8602 171.258 50.5892C166.16 43.3182 159.68 37.1225 152.187 32.3558C144.695 27.5892 136.337 24.3449 127.591 22.8082C118.845 21.2716 109.882 21.4727 101.213 23.4C92.545 25.3274 84.341 28.9432 77.07 34.0411C69.799 39.1389 63.6033 45.619 58.8366 53.1114C54.07 60.6037 50.8257 68.9615 49.2891 77.7076C47.7524 86.4538 47.9535 95.4169 49.8809 104.085L115.89 89.4089L181.899 74.7326Z" fill="#FFD600"/>
<g id="Group 1">
<circle id="Ellipse 20" cx="103.482" cy="82.9315" r="6.76208" transform="rotate(-12.5352 103.482 82.9315)" fill="white"/>
<circle id="Ellipse 21" cx="113.383" cy="80.7301" r="6.76208" transform="rotate(-12.5352 113.383 80.7301)" fill="white"/>
<circle id="Ellipse 22" cx="103.482" cy="82.9315" r="3.38104" transform="rotate(-12.5352 103.482 82.9315)" fill="black"/>
<circle id="Ellipse 23" cx="113.383" cy="80.7301" r="3.38104" transform="rotate(-12.5352 113.383 80.7301)" fill="black"/>
</g>
<path id="Vector 16" d="M92.1759 96.9905C92.1759 96.9905 96.3331 105.302 110.635 102.123C124.937 98.9427 125.18 89.6523 125.18 89.6523" stroke="black" stroke-width="2.25403" stroke-linecap="round"/>
</g>
</svg>
