<svg width="32" height="32" viewBox="0 0 32 32" fill="none" xmlns="http://www.w3.org/2000/svg">
<path d="M18.9395 27.0612L8.93951 17.0612C8.79967 16.9218 8.68871 16.7563 8.61301 16.5739C8.5373 16.3916 8.49832 16.1961 8.49832 15.9987C8.49832 15.8013 8.5373 15.6058 8.61301 15.4235C8.68871 15.2411 8.79967 15.0756 8.93951 14.9362L18.9395 4.9362C19.2213 4.6544 19.6035 4.49609 20.002 4.49609C20.4005 4.49609 20.7827 4.6544 21.0645 4.9362C21.3463 5.21799 21.5046 5.60018 21.5046 5.9987C21.5046 6.39721 21.3463 6.7794 21.0645 7.0612L12.1258 15.9999L21.0658 24.9387C21.3475 25.2205 21.5059 25.6027 21.5059 26.0012C21.5059 26.3997 21.3475 26.7819 21.0658 27.0637C20.784 27.3455 20.4018 27.5038 20.0033 27.5038C19.6047 27.5038 19.2225 27.3455 18.9408 27.0637L18.9395 27.0612Z" fill="#6E6E73"/>
</svg>
