<svg width="375" height="812" viewBox="0 0 375 812" fill="none" xmlns="http://www.w3.org/2000/svg">
<g clip-path="url(#clip0_17_5136)">
<rect width="375" height="812" fill="black"/>
<path d="M337.435 34.1032C298.058 29.1204 270.176 -6.84012 275.159 -46.2169L296.053 -211.328C301.035 -250.705 336.996 -278.586 376.373 -273.604C415.749 -268.621 443.631 -232.66 438.648 -193.283L417.755 -28.1725C412.772 11.2043 376.812 39.0861 337.435 34.1032Z" fill="#1FD068"/>
<path d="M256.396 -48.591C254.9 -36.7641 255.747 -24.7582 258.891 -13.2588C262.034 -1.75946 267.411 9.0082 274.716 18.4293C282.021 27.8505 291.109 35.7407 301.463 41.6493C311.817 47.5579 323.234 51.3694 335.061 52.866C346.887 54.3626 358.893 53.5151 370.393 50.3718C381.892 47.2285 392.66 41.851 402.081 34.5464C411.502 27.2417 419.392 18.153 425.301 7.79908C431.209 -2.55484 435.021 -13.9712 436.518 -25.7981L346.457 -37.1945L256.396 -48.591Z" fill="#1FD068"/>
<rect x="-63.5129" y="234.904" width="167.87" height="60.8759" rx="30.438" transform="rotate(-40.3469 -63.5129 234.904)" fill="#7187FF"/>
<path d="M-115.851 170.443C-108.793 178.751 -100.168 185.588 -90.4679 190.563C-80.7679 195.538 -70.1831 198.554 -59.3176 199.438C-48.4522 200.323 -37.5189 199.058 -27.1422 195.717C-16.7654 192.376 -7.14827 187.024 1.16008 179.966C9.46844 172.909 16.3053 164.284 21.2804 154.584C26.2554 144.884 29.2712 134.299 30.1556 123.434C31.0399 112.568 29.7755 101.635 26.4345 91.258C23.0935 80.8813 17.7414 71.2642 10.6837 62.9558L-52.5834 116.699L-115.851 170.443Z" fill="#7187FF"/>
<rect width="138.069" height="50.069" rx="25.0345" transform="matrix(-1 0 0 1 34.2758 778.207)" fill="#FE5D5C"/>
<path d="M34.2759 709.931C34.2759 718.897 32.5099 727.775 29.0787 736.059C25.6475 744.343 20.6183 751.869 14.2783 758.209C7.93832 764.549 0.411651 769.579 -7.87196 773.01C-16.1556 776.441 -25.0339 778.207 -34 778.207C-42.9661 778.207 -51.8444 776.441 -60.128 773.01C-68.4116 769.579 -75.9383 764.549 -82.2783 758.209C-88.6183 751.869 -93.6475 744.343 -97.0787 736.059C-100.51 727.775 -102.276 718.897 -102.276 709.931L-34 709.931L34.2759 709.931Z" fill="#FE5D5C"/>
<path d="M-122 696.276C-122 684.72 -119.724 673.276 -115.301 662.6C-110.879 651.923 -104.397 642.222 -96.2254 634.05C-88.0538 625.879 -78.3528 619.397 -67.6761 614.974C-56.9995 610.552 -45.5563 608.276 -34 608.276C-22.4437 608.276 -11.0005 610.552 -0.323853 614.974C10.3528 619.397 20.0538 625.879 28.2254 634.05C36.397 642.222 42.879 651.923 47.3014 662.6C51.7238 673.276 54 684.72 54 696.276L-34 696.276H-122Z" fill="#FE5D5C"/>
<path d="M-78 709.931C-78 704.153 -76.8619 698.431 -74.6507 693.093C-72.4395 687.755 -69.1985 682.904 -65.1127 678.818C-61.0269 674.733 -56.1764 671.492 -50.8381 669.28C-45.4997 667.069 -39.7782 665.931 -34 665.931C-28.2218 665.931 -22.5003 667.069 -17.1619 669.28C-11.8236 671.492 -6.97308 674.733 -2.8873 678.818C1.19848 682.904 4.43949 687.755 6.6507 693.093C8.86191 698.431 10 704.153 10 709.931L-34 709.931H-78Z" fill="#FE5D5C"/>
<circle cx="68.2759" cy="68.2759" r="68.2759" transform="matrix(-1 0 0 1 34.2758 496)" fill="#FE5D5C"/>
<rect x="485.318" y="506.668" width="119.867" height="121.8" rx="28.0333" transform="rotate(106.855 485.318 506.668)" fill="#FF8339"/>
<path d="M323.226 528.262C319.914 539.197 318.787 550.676 319.911 562.046C321.034 573.415 324.387 584.452 329.776 594.526C335.165 604.601 342.485 613.515 351.32 620.76C360.154 628.004 370.328 633.438 381.262 636.751C392.197 640.064 403.676 641.191 415.046 640.067C426.415 638.943 437.452 635.591 447.526 630.202C457.601 624.813 466.515 617.492 473.76 608.658C481.004 599.824 486.438 589.649 489.751 578.715L406.489 553.489L323.226 528.262Z" fill="#FF8339"/>
</g>
<defs>
<clipPath id="clip0_17_5136">
<rect width="375" height="812" fill="white"/>
</clipPath>
</defs>
</svg>
