<svg width="224" height="224" viewBox="0 0 224 224" fill="none" xmlns="http://www.w3.org/2000/svg">
<g id="Group 31">
<rect id="Rectangle 31" x="192.202" y="46.9305" width="135.022" height="137.2" rx="31.5778" transform="rotate(98.5105 192.202 46.9305)" fill="#FF8339"/>
<path id="Ellipse 12" d="M15.0789 97.4971C13.1744 110.225 13.7954 123.203 16.9065 135.691C20.0176 148.179 25.558 159.932 33.2112 170.278C40.8644 180.625 50.4806 189.363 61.5107 195.993C72.5408 202.624 84.7689 207.017 97.4967 208.921C110.225 210.826 123.203 210.205 135.691 207.094C148.179 203.982 159.931 198.442 170.278 190.789C180.625 183.136 189.363 173.519 195.993 162.489C202.623 151.459 207.016 139.231 208.921 126.503L112 112L15.0789 97.4971Z" fill="#FF8339"/>
<g id="Group 2">
<circle id="Ellipse 20" cx="139.237" cy="91.8536" r="6.53333" transform="rotate(8.51051 139.237 91.8536)" fill="white"/>
<circle id="Ellipse 21" cx="148.929" cy="93.3039" r="6.53333" transform="rotate(8.51051 148.929 93.3039)" fill="white"/>
<circle id="Ellipse 22" cx="139.237" cy="91.8535" r="3.26667" transform="rotate(8.51051 139.237 91.8535)" fill="black"/>
<circle id="Ellipse 23" cx="148.929" cy="93.3039" r="3.26667" transform="rotate(8.51051 148.929 93.3039)" fill="black"/>
</g>
<path id="Vector 22" d="M106.725 117.817L139.032 122.651" stroke="black" stroke-width="2.17778" stroke-linecap="round"/>
</g>
</svg>
