<svg width="54" height="36" viewBox="0 0 54 36" fill="none" xmlns="http://www.w3.org/2000/svg">
<g id="Frame 59">
<g id="Group 22">
<rect id="Rectangle 31" x="39.7998" y="2" width="24.8" height="25.2" rx="5.8" transform="rotate(90 39.7998 2)" fill="black"/>
<path id="Ellipse 12" d="M9.00001 16C9.00001 18.3638 9.46559 20.7044 10.3702 22.8883C11.2748 25.0722 12.6006 27.0565 14.2721 28.7279C15.9435 30.3994 17.9278 31.7252 20.1117 32.6298C22.2956 33.5344 24.6362 34 27 34C29.3638 34 31.7044 33.5344 33.8883 32.6298C36.0722 31.7252 38.0565 30.3994 39.7279 28.7279C41.3994 27.0565 42.7252 25.0722 43.6298 22.8883C44.5344 20.7044 45 18.3638 45 16L27 16L9.00001 16Z" fill="black"/>
</g>
</g>
</svg>
