<svg width="36" height="54" viewBox="0 0 36 54" fill="none" xmlns="http://www.w3.org/2000/svg">
<g id="Frame 69">
<g id="Group 31">
<rect id="Rectangle 30" x="8.56543" y="46.0469" width="40.7168" height="18.869" rx="9.43448" transform="rotate(-90 8.56543 46.0469)" fill="black"/>
<path id="Ellipse 14" d="M6.08349 36.613C6.08349 38.178 6.39174 39.7276 6.99064 41.1735C7.58953 42.6193 8.46735 43.9331 9.57397 45.0397C10.6806 46.1463 11.9943 47.0241 13.4402 47.623C14.8861 48.2219 16.4357 48.5301 18.0007 48.5301C19.5657 48.5301 21.1154 48.2219 22.5613 47.623C24.0071 47.0241 25.3209 46.1463 26.4275 45.0397C27.5341 43.9331 28.4119 42.6193 29.0108 41.1735C29.6097 39.7276 29.918 38.178 29.918 36.613L18.0007 36.613L6.08349 36.613Z" fill="black"/>
</g>
</g>
</svg>
