<svg width="175" height="224" viewBox="0 0 175 224" fill="none" xmlns="http://www.w3.org/2000/svg">
<g id="Group 32">
<rect id="Rectangle 28" x="5.11304" y="153.564" width="155.909" height="56.5384" rx="28.2692" transform="rotate(5.18823 5.11304 153.564)" fill="#7187FF"/>
<path id="Ellipse 10" d="M13.7904 76.9368C12.8749 87.02 13.9543 97.1847 16.9671 106.851C19.9799 116.517 24.867 125.495 31.3495 133.272C37.832 141.049 45.7828 147.473 54.7481 152.178C63.7133 156.882 73.5174 159.775 83.6005 160.691C93.6837 161.606 103.848 160.527 113.514 157.514C123.18 154.501 132.158 149.614 139.936 143.131C147.713 136.649 154.137 128.698 158.842 119.733C163.546 110.768 166.439 100.964 167.354 90.8804L90.5723 83.9086L13.7904 76.9368Z" fill="#7187FF"/>
<path id="Ellipse 11" d="M140.054 88.4015C140.644 81.9035 139.948 75.3529 138.007 69.1237C136.065 62.8945 132.916 57.1087 128.738 52.0967C124.56 47.0847 119.436 42.9446 113.659 39.9128C107.881 36.881 101.563 35.0169 95.065 34.4269C88.567 33.8369 82.0164 34.5325 75.7872 36.4741C69.558 38.4157 63.7723 41.5652 58.7603 45.7428C53.7483 49.9204 49.6082 55.0442 46.5764 60.8218C43.5446 66.5994 41.6805 72.9176 41.0904 79.4156L90.5721 83.9086L140.054 88.4015Z" fill="#7187FF"/>
<g id="Group 3">
<circle id="Ellipse 20" cx="88.3996" cy="69.9486" r="5.13985" transform="rotate(5.18823 88.3996 69.9486)" fill="white"/>
<circle id="Ellipse 21" cx="96.0776" cy="70.6458" r="5.13985" transform="rotate(5.18823 96.0776 70.6458)" fill="white"/>
<circle id="Ellipse 22" cx="88.3989" cy="69.9487" r="2.56993" transform="rotate(5.18823 88.3989 69.9487)" fill="black"/>
<circle id="Ellipse 23" cx="96.078" cy="70.6457" r="2.56993" transform="rotate(5.18823 96.078 70.6457)" fill="black"/>
</g>
<path id="Vector 18" d="M63.2722 81.4297C63.2722 81.4297 66.1788 88.5749 89.0996 90.6561C112.02 92.7374 116.166 86.2325 116.166 86.2325" stroke="black" stroke-width="1.71328" stroke-linecap="round"/>
</g>
</svg>
