<svg width="54" height="36" viewBox="0 0 54 36" fill="none" xmlns="http://www.w3.org/2000/svg">
<g id="Frame 58">
<g id="Group 26">
<rect id="Rectangle 25" x="3" y="17.724" width="48.2204" height="15.1999" rx="7.59995" fill="black"/>
<path id="Ellipse 9" d="M42.8338 17.724C42.8338 15.6591 42.4271 13.6144 41.6369 11.7067C40.8467 9.79894 39.6884 8.06554 38.2283 6.60543C36.7682 5.14532 35.0348 3.9871 33.1271 3.19689C31.2194 2.40668 29.1747 1.99997 27.1098 1.99997C25.0449 1.99997 23.0002 2.40668 21.0924 3.19689C19.1847 3.9871 17.4513 5.14532 15.9912 6.60543C14.5311 8.06554 13.3729 9.79895 12.5827 11.7067C11.7925 13.6144 11.3857 15.6591 11.3857 17.724L27.1098 17.724H42.8338Z" fill="black"/>
</g>
</g>
</svg>
