<svg width="36" height="54" viewBox="0 0 36 54" fill="none" xmlns="http://www.w3.org/2000/svg">
<g id="Frame 70">
<g id="Group 33">
<rect id="Rectangle 29" x="8.41211" y="42.8634" width="18.9282" height="6.86398" rx="3.43199" fill="black"/>
<path id="Ellipse 15" d="M8.41168 33.5034C8.41168 34.7325 8.65379 35.9497 9.12417 37.0853C9.59456 38.2209 10.284 39.2527 11.1532 40.1219C12.0223 40.991 13.0542 41.6805 14.1898 42.1509C15.3254 42.6213 16.5426 42.8634 17.7718 42.8634C19.0009 42.8634 20.2181 42.6213 21.3537 42.1509C22.4893 41.6805 23.5212 40.991 24.3903 40.1219C25.2595 39.2527 25.949 38.2209 26.4193 37.0853C26.8897 35.9497 27.1318 34.7325 27.1318 33.5034L17.7718 33.5034L8.41168 33.5034Z" fill="black"/>
<path id="Ellipse 17" d="M29.8362 31.632C29.8362 30.0477 29.5242 28.479 28.9179 27.0153C28.3116 25.5516 27.423 24.2217 26.3027 23.1015C25.1825 21.9812 23.8525 21.0926 22.3888 20.4863C20.9252 19.88 19.3564 19.568 17.7721 19.568C16.1878 19.568 14.6191 19.88 13.1554 20.4863C11.6917 21.0926 10.3618 21.9812 9.2415 23.1015C8.12125 24.2217 7.23261 25.5516 6.62633 27.0153C6.02005 28.479 5.70801 30.0477 5.70801 31.632L17.7721 31.632L29.8362 31.632Z" fill="black"/>
<path id="Ellipse 16" d="M23.8043 33.5039C23.8043 32.7118 23.6483 31.9274 23.3452 31.1956C23.042 30.4637 22.5977 29.7988 22.0376 29.2387C21.4775 28.6785 20.8125 28.2342 20.0807 27.9311C19.3488 27.6279 18.5644 27.4719 17.7723 27.4719C16.9801 27.4719 16.1958 27.6279 15.4639 27.9311C14.7321 28.2342 14.0671 28.6785 13.507 29.2387C12.9469 29.7988 12.5025 30.4637 12.1994 31.1956C11.8963 31.9274 11.7402 32.7118 11.7402 33.5039L17.7723 33.5039H23.8043Z" fill="black"/>
<ellipse id="Ellipse 18" cx="17.7722" cy="13.5358" rx="9.36008" ry="9.35998" fill="black"/>
</g>
</g>
</svg>
