<svg width="146" height="228" viewBox="0 0 146 228" fill="none" xmlns="http://www.w3.org/2000/svg">
<g id="Group 34">
<rect id="Rectangle 30" x="38.8286" y="213.797" width="201.583" height="93.4166" rx="46.7083" transform="rotate(-97.3756 38.8286 213.797)" fill="#1FD068"/>
<path id="Ellipse 14" d="M20.6426 169.053C21.6372 176.736 24.1356 184.149 27.995 190.868C31.8544 197.586 36.9993 203.478 43.1359 208.208C49.2726 212.938 56.2808 216.413 63.7604 218.435C71.24 220.456 79.0445 220.985 86.7284 219.99C94.4123 218.996 101.825 216.497 108.543 212.638C115.262 208.779 121.154 203.634 125.884 197.497C130.614 191.36 134.089 184.352 136.111 176.873C138.132 169.393 138.661 161.588 137.666 153.905L79.1544 161.479L20.6426 169.053Z" fill="#1FD068"/>
<g id="Group 4">
<circle id="Ellipse 20" cx="45.5636" cy="45.6028" r="3.6875" transform="rotate(-7.37559 45.5636 45.6028)" fill="white"/>
<circle id="Ellipse 21" cx="51.0491" cy="44.8927" r="3.6875" transform="rotate(-7.37559 51.0491 44.8927)" fill="white"/>
<circle id="Ellipse 22" cx="45.5636" cy="45.6028" r="1.84375" transform="rotate(-7.37559 45.5636 45.6028)" fill="black"/>
<circle id="Ellipse 23" cx="51.0491" cy="44.8927" r="1.84375" transform="rotate(-7.37559 51.0491 44.8927)" fill="black"/>
</g>
<path id="Vector 20" d="M36.0128 57.9939L54.2978 55.627" stroke="black" stroke-width="1.22917" stroke-linecap="round"/>
</g>
</svg>
