<svg width="141" height="219" viewBox="0 0 141 219" fill="none" xmlns="http://www.w3.org/2000/svg">
<g id="Group 35">
<rect id="Rectangle 29" x="17.2332" y="172.599" width="84.6325" height="30.6909" rx="15.3455" transform="rotate(9.53177 17.2332 172.599)" fill="#FE5D5C"/>
<path id="Ellipse 15" d="M24.1635 131.326C23.2534 136.746 23.4198 142.292 24.6531 147.648C25.8865 153.004 28.1627 158.064 31.3517 162.54C34.5408 167.016 38.5802 170.82 43.2395 173.736C47.8987 176.651 53.0865 178.619 58.5066 179.529C63.9267 180.439 69.473 180.273 74.8288 179.04C80.1846 177.806 85.245 175.53 89.7212 172.341C94.1973 169.152 98.0015 165.113 100.916 160.453C103.831 155.794 105.8 150.606 106.71 145.186L65.4369 138.256L24.1635 131.326Z" fill="#FE5D5C"/>
<path id="Ellipse 17" d="M120.02 138.934C121.193 131.948 120.979 124.799 119.389 117.896C117.799 110.993 114.865 104.471 110.755 98.7017C106.645 92.9324 101.438 88.0293 95.4331 84.2722C89.4278 80.515 82.7414 77.9775 75.7555 76.8045C68.7696 75.6315 61.621 75.8459 54.718 77.4356C47.8149 79.0252 41.2926 81.959 35.5233 86.0693C29.7541 90.1797 24.851 95.3861 21.0938 101.391C17.3367 107.397 14.7992 114.083 13.6262 121.069L66.823 130.001L120.02 138.934Z" fill="#FE5D5C"/>
<path id="Ellipse 16" d="M92.0351 142.722C92.6216 139.229 92.5144 135.655 91.7196 132.204C90.9247 128.752 89.4579 125.491 87.4027 122.606C85.3475 119.722 82.7443 117.27 79.7417 115.391C76.7391 113.513 73.3958 112.244 69.9029 111.658C66.4099 111.071 62.8356 111.178 59.3841 111.973C55.9326 112.768 52.6714 114.235 49.7868 116.29C46.9022 118.345 44.4506 120.948 42.5721 123.951C40.6935 126.954 39.4247 130.297 38.8382 133.79L65.4367 138.256L92.0351 142.722Z" fill="#FE5D5C"/>
<circle id="Ellipse 18" cx="80.2223" cy="50.206" r="41.8512" transform="rotate(9.53177 80.2223 50.206)" fill="#FE5D5C"/>
<g id="Group 5">
<circle id="Ellipse 20" cx="98.8877" cy="40.1375" r="2.79008" transform="rotate(9.53177 98.8877 40.1375)" fill="white"/>
<circle id="Ellipse 21" cx="103.015" cy="40.8305" r="2.79008" transform="rotate(9.53177 103.015 40.8305)" fill="white"/>
<circle id="Ellipse 22" cx="98.8879" cy="40.1376" r="1.39504" transform="rotate(9.53177 98.8879 40.1376)" fill="black"/>
<circle id="Ellipse 23" cx="103.015" cy="40.8305" r="1.39504" transform="rotate(9.53177 103.015 40.8305)" fill="black"/>
</g>
<path id="Vector 21" d="M92.7615 48.5393C92.7615 48.5393 92.818 52.321 97.19 53.0551C101.562 53.7892 102.851 50.2334 102.851 50.2334" stroke="black" stroke-width="0.930028" stroke-linecap="round"/>
</g>
</svg>
