<svg width="220" height="220" viewBox="0 0 220 220" fill="none" xmlns="http://www.w3.org/2000/svg">
<g id="Frame 44">
<g id="Group 17">
<rect id="Rectangle 31" x="175.306" y="37.5593" width="127.467" height="129.523" rx="29.8109" transform="rotate(90 175.306 37.5593)" fill="#FF8339"/>
<path id="Ellipse 12" d="M17 109.517C17 121.666 19.393 133.697 24.0424 144.921C28.6918 156.146 35.5066 166.345 44.0975 174.936C52.6885 183.527 62.8874 190.342 74.1121 194.991C85.3367 199.64 97.3672 202.033 109.517 202.033C121.666 202.033 133.697 199.64 144.921 194.991C156.146 190.342 166.345 183.527 174.936 174.936C183.527 166.345 190.342 156.146 194.991 144.921C199.64 133.697 202.033 121.666 202.033 109.517L109.517 109.517L17 109.517Z" fill="#FF8339"/>
<g id="Group 2">
<circle id="Ellipse 20" cx="132.132" cy="86.9015" r="6.16778" fill="white"/>
<circle id="Ellipse 21" cx="141.383" cy="86.9015" r="6.16778" fill="white"/>
<circle id="Ellipse 22" cx="132.132" cy="86.9015" r="3.08389" fill="black"/>
<circle id="Ellipse 23" cx="141.384" cy="86.9015" r="3.08389" fill="black"/>
</g>
<path id="Vector 22" d="M105.405 115.684H136.244" stroke="black" stroke-width="2.05593" stroke-linecap="round"/>
</g>
</g>
</svg>
