<svg width="80" height="80" viewBox="0 0 80 80" fill="none" xmlns="http://www.w3.org/2000/svg">
<g id="splash_character_10">
<g id="Group 10">
<path id="Rectangle 25" d="M4 52.319C4 46.0677 9.10223 41 15.3961 41H64.9104C71.2043 41 76.3066 46.0677 76.3066 52.319C76.3066 58.5703 71.2043 63.638 64.9104 63.638H15.3961C9.10223 63.638 4 58.5703 4 52.319Z" fill="#FFD600"/>
<path id="Ellipse 9" d="M63.805 41.6517C63.805 38.5457 63.1932 35.4701 62.0046 32.6006C60.816 29.731 59.0739 27.1237 56.8776 24.9274C54.6813 22.7312 52.074 20.989 49.2044 19.8004C46.3349 18.6118 43.2593 18 40.1533 18C37.0473 18 33.9718 18.6118 31.1022 19.8004C28.2327 20.989 25.6253 22.7312 23.4291 24.9274C21.2328 27.1237 19.4906 29.731 18.302 32.6006C17.1134 35.4701 16.5016 38.5457 16.5016 41.6517L40.1533 41.6517L63.805 41.6517Z" fill="#FFD600"/>
<g id="Group 1">
<path id="Ellipse 20" d="M38.8018 37.2729C38.8018 38.5791 37.7429 39.6381 36.4366 39.6381C35.1304 39.6381 34.0715 38.5791 34.0715 37.2729C34.0715 35.9666 35.1304 34.9077 36.4366 34.9077C37.7429 34.9077 38.8018 35.9666 38.8018 37.2729Z" fill="white"/>
<path id="Ellipse 21" d="M42.1806 37.2729C42.1806 38.5791 41.1217 39.6381 39.8154 39.6381C38.5092 39.6381 37.4503 38.5791 37.4503 37.2729C37.4503 35.9666 38.5092 34.9077 39.8154 34.9077C41.1217 34.9077 42.1806 35.9666 42.1806 37.2729Z" fill="white"/>
<path id="Ellipse 22" d="M37.4503 37.4419C37.4503 38.095 36.9208 38.6244 36.2677 38.6244C35.6145 38.6244 35.0851 38.095 35.0851 37.4419C35.0851 36.7887 35.6145 36.2593 36.2677 36.2593C36.9208 36.2593 37.4503 36.7887 37.4503 37.4419Z" fill="black"/>
<path id="Ellipse 23" d="M41.167 37.4419C41.167 38.095 40.6375 38.6244 39.9844 38.6244C39.3313 38.6244 38.8018 38.095 38.8018 37.4419C38.8018 36.7887 39.3313 36.2593 39.9844 36.2593C40.6375 36.2593 41.167 36.7887 41.167 37.4419Z" fill="black"/>
</g>
<path id="Vector 16 (Stroke)" fill-rule="evenodd" clip-rule="evenodd" d="M31.3265 41.0007C31.5358 40.9509 31.748 41.072 31.8003 41.2711L31.4213 41.3613C31.8003 41.2711 31.8002 41.2709 31.8002 41.2706L31.8 41.2702L31.7999 41.2695L31.7997 41.2689C31.7997 41.2689 31.7999 41.2695 31.8002 41.2708C31.801 41.2735 31.8026 41.2787 31.8051 41.2865C31.81 41.302 31.8186 41.3274 31.8316 41.3612C31.8577 41.429 31.9014 41.5303 31.9692 41.6541C32.1047 41.9017 32.336 42.2383 32.7145 42.5772C33.4638 43.2481 34.8292 43.9629 37.2813 43.9629C39.7334 43.9629 41.0989 43.2481 41.8481 42.5772C42.2267 42.2383 42.4579 41.9017 42.5934 41.6541C42.6612 41.5303 42.7049 41.429 42.731 41.3612C42.744 41.3274 42.7526 41.302 42.7576 41.2865C42.7601 41.2787 42.7616 41.2735 42.7624 41.2708C42.7628 41.2695 42.763 41.2689 42.7629 41.2689L42.7628 41.2695L42.7626 41.2702L42.7625 41.2706C42.815 41.0718 43.027 40.9509 43.2361 41.0007C43.4454 41.0505 43.5727 41.2523 43.5204 41.4514L43.1414 41.3613C43.5204 41.4514 43.5203 41.4517 43.5202 41.452L43.52 41.4526L43.5196 41.4541L43.5186 41.4579L43.5155 41.4687C43.513 41.4774 43.5096 41.4888 43.5051 41.5028C43.4961 41.5308 43.483 41.5693 43.4647 41.6168C43.4282 41.7116 43.3712 41.8426 43.2864 41.9975C43.1167 42.3074 42.8352 42.7142 42.3836 43.1185C41.4725 43.9343 39.9079 44.7062 37.2813 44.7062C34.6547 44.7062 33.0901 43.9343 32.179 43.1185C31.7274 42.7142 31.4459 42.3074 31.2762 41.9975C31.1914 41.8426 31.1344 41.7116 31.0979 41.6168C31.0797 41.5693 31.0665 41.5308 31.0575 41.5028C31.053 41.4888 31.0496 41.4774 31.0471 41.4687L31.044 41.4579L31.043 41.4541L31.0426 41.4526L31.0424 41.452C31.0423 41.4517 31.0423 41.4514 31.4213 41.3613L31.0423 41.4514C30.9899 41.2523 31.1172 41.0505 31.3265 41.0007Z" fill="black"/>
</g>
</g>
</svg>
