<svg width="54" height="36" viewBox="0 0 54 36" fill="none" xmlns="http://www.w3.org/2000/svg">
<g id="Frame 62">
<g id="Group 26">
<rect id="Rectangle 28" x="13.0605" y="23.98" width="29.12" height="10.56" rx="5.28" fill="black"/>
<path id="Ellipse 10" d="M13.3807 9.58C13.3807 11.471 13.7531 13.3436 14.4768 15.0906C15.2005 16.8377 16.2612 18.4252 17.5983 19.7623C18.9355 21.0995 20.5229 22.1602 22.27 22.8839C24.0171 23.6075 25.8896 23.98 27.7807 23.98C29.6717 23.98 31.5442 23.6075 33.2913 22.8839C35.0384 22.1602 36.6258 21.0995 37.963 19.7623C39.3002 18.4252 40.3609 16.8377 41.0845 15.0906C41.8082 13.3436 42.1807 11.471 42.1807 9.58L27.7807 9.58L13.3807 9.58Z" fill="black"/>
<path id="Ellipse 11" d="M37.061 9.58C37.061 8.36134 36.8209 7.1546 36.3546 6.0287C35.8882 4.9028 35.2047 3.87978 34.3429 3.01805C33.4812 2.15632 32.4582 1.47276 31.3323 1.0064C30.2064 0.540037 28.9996 0.300003 27.781 0.300003C26.5623 0.300003 25.3556 0.540037 24.2297 1.0064C23.1038 1.47276 22.0808 2.15632 21.219 3.01805C20.3573 3.87978 19.6737 4.9028 19.2074 6.0287C18.741 7.1546 18.501 8.36134 18.501 9.58L27.781 9.58H37.061Z" fill="black"/>
</g>
</g>
</svg>
